<?xml version="1.0" encoding="UTF-8"?>
<svg xmlns="http://www.w3.org/2000/svg" xmlns:xlink="http://www.w3.org/1999/xlink" width="14px" height="14px" viewBox="0 0 14 14" version="1.1">
<g id="surface1">
<path style=" stroke:none;fill-rule:nonzero;fill:rgb(0%,0%,0%);fill-opacity:1;" d="M 7 1.167969 C 3.785156 1.167969 1.167969 3.785156 1.167969 7 C 1.167969 10.214844 3.785156 12.832031 7 12.832031 C 10.214844 12.832031 12.832031 10.214844 12.832031 7 C 12.832031 3.785156 10.214844 1.167969 7 1.167969 Z M 7 2.332031 C 9.585938 2.332031 11.667969 4.414062 11.667969 7 C 11.667969 9.585938 9.585938 11.667969 7 11.667969 C 4.414062 11.667969 2.332031 9.585938 2.332031 7 C 2.332031 4.414062 4.414062 2.332031 7 2.332031 Z M 6.417969 4.082031 L 6.417969 5.25 L 7.582031 5.25 L 7.582031 4.082031 Z M 6.417969 6.417969 L 6.417969 9.917969 L 7.582031 9.917969 L 7.582031 6.417969 Z M 6.417969 6.417969 "/>
</g>
</svg>
